<svg width="243" height="256" viewBox="0 0 243 256" fill="none" xmlns="http://www.w3.org/2000/svg">
<path d="M48.7351 125.99L184.115 11.7592L146.569 100.086L196.777 137.641M48.7351 125.99L119.516 131.56L105.419 144.996M48.7351 125.99L55.5728 141.073L105.419 144.996M105.419 144.996L32 243.037M32 243.037L196.777 137.641M32 243.037L194.894 161.567L196.777 137.641" stroke="#00FFDA" stroke-width="5"/>
<g filter="url(#filter0_d_35_2)">
<path d="M106.425 109.384C104.587 110.927 102.726 111.622 100.843 111.468C98.972 111.304 97.2446 110.279 95.6608 108.391L89.6135 101.184L92.5918 98.6852L98.5466 105.782C100.48 108.086 102.403 108.436 104.315 106.832C105.246 106.05 105.726 105.178 105.753 104.215C105.771 103.24 105.28 102.158 104.283 100.969L98.328 93.8721L101.27 91.4037L107.317 98.6107C108.901 100.498 109.605 102.383 109.429 104.264C109.265 106.135 108.264 107.842 106.425 109.384ZM112.233 87.0294C113.152 86.258 114.165 85.7732 115.273 85.5748C116.383 85.3539 117.476 85.4495 118.553 85.8617C119.619 86.2617 120.58 86.9703 121.433 87.9876C122.287 89.0049 122.823 90.0796 123.042 91.2118C123.251 92.3317 123.155 93.4249 122.755 94.4915C122.357 95.5356 121.698 96.4433 120.779 97.2147C119.419 98.3563 118.023 98.7963 116.592 98.5349L117.549 99.6748L114.809 101.973L103.363 88.3316L106.231 85.925L110.257 90.7235C110.312 89.3201 110.97 88.0887 112.233 87.0294ZM118.308 95.2779C119.044 94.6608 119.438 93.9118 119.493 93.0307C119.549 92.1271 119.228 91.2585 118.528 90.4251C117.829 89.5916 117.035 89.1303 116.145 89.0411C115.258 88.9294 114.446 89.1821 113.711 89.7992C112.976 90.4163 112.58 91.1766 112.523 92.0802C112.469 92.9613 112.791 93.8186 113.491 94.652C114.19 95.4855 114.984 95.9581 115.871 96.0698C116.76 96.159 117.573 95.895 118.308 95.2779ZM133.073 78.2834C133.104 78.3202 133.301 78.593 133.666 79.1018L126.183 85.3806C126.832 85.8803 127.557 86.097 128.358 86.0308C129.158 85.9646 129.933 85.6178 130.68 84.9904C131.195 84.5585 131.587 84.1044 131.856 83.6282C132.127 83.1295 132.295 82.5707 132.36 81.9518L135.275 82.326C135.238 84.174 134.325 85.8487 132.535 87.3503C131.42 88.2862 130.253 88.8996 129.035 89.1905C127.807 89.4692 126.636 89.4179 125.522 89.0365C124.409 88.6551 123.44 87.9742 122.618 86.9937C121.805 86.0254 121.302 84.9649 121.107 83.8122C120.915 82.6369 121.037 81.5006 121.474 80.4031C121.912 79.2831 122.628 78.3065 123.621 77.4735C124.589 76.661 125.64 76.134 126.775 75.8925C127.909 75.651 129.025 75.7374 130.125 76.1516C131.226 76.5432 132.209 77.2538 133.073 78.2834ZM125.46 79.6275C124.81 80.1726 124.419 80.8141 124.286 81.552C124.154 82.29 124.306 83.0188 124.742 83.7384L129.614 79.6503C128.992 79.1075 128.306 78.8373 127.556 78.8399C126.796 78.8301 126.097 79.0927 125.46 79.6275ZM134.636 70.7055C134.578 69.9396 134.735 69.1923 135.105 68.4638C135.488 67.725 136.059 67.0368 136.819 66.3991L139.04 69.0466C138.701 69.2895 138.476 69.4572 138.366 69.5498C137.545 70.2388 137.097 71.0116 137.022 71.8682C136.937 72.7125 137.28 73.5943 138.051 74.5136L141.969 79.1834L139.101 81.59L130.802 71.6988L133.541 69.4002L134.636 70.7055Z" fill="#00FFDA"/>
</g>
<g filter="url(#filter1_d_35_2)">
<path d="M88.6617 193.915L90.989 195.993L82.3253 205.696L69.7937 194.506L78.2497 185.036L80.577 187.114L74.6946 193.702L77.4157 196.132L82.6107 190.313L84.8664 192.327L79.6714 198.146L82.5715 200.735L88.6617 193.915ZM79.5902 182.021L82.0838 179.228L95.3672 191.089L92.8736 193.882L79.5902 182.021ZM101.326 174.795C101.361 174.827 101.596 175.069 102.03 175.52L95.5237 182.806C96.2377 183.208 96.9862 183.318 97.7692 183.138C98.5522 182.958 99.2688 182.504 99.9188 181.776C100.366 181.274 100.689 180.769 100.887 180.259C101.083 179.727 101.17 179.149 101.146 178.528L104.084 178.48C104.312 180.314 103.648 182.103 102.093 183.845C101.123 184.931 100.056 185.706 98.8925 186.168C97.7169 186.62 96.5507 186.737 95.3938 186.519C94.237 186.301 93.1812 185.766 92.2264 184.913C91.2836 184.072 90.6333 183.094 90.2757 181.981C89.9169 180.846 89.8749 179.704 90.1499 178.555C90.4235 177.383 90.992 176.314 91.8551 175.348C92.697 174.405 93.6618 173.733 94.7496 173.331C95.8374 172.93 96.955 172.855 98.1025 173.107C99.2487 173.337 100.323 173.9 101.326 174.795ZM93.9836 177.216C93.4188 177.849 93.1236 178.54 93.098 179.289C93.0724 180.038 93.3273 180.738 93.8626 181.387L98.0986 176.643C97.4047 176.195 96.6869 176.026 95.9452 176.136C95.1916 176.235 94.5377 176.595 93.9836 177.216ZM112.065 172.677C111.148 173.703 110.114 174.442 108.961 174.892C107.806 175.32 106.645 175.431 105.478 175.225C104.321 175.007 103.265 174.472 102.311 173.62C101.356 172.767 100.705 171.778 100.358 170.654C100.022 169.517 100.007 168.356 100.314 167.172C100.62 165.964 101.231 164.848 102.147 163.821C103.053 162.807 104.056 162.115 105.157 161.747C106.257 161.356 107.355 161.34 108.452 161.697L107.681 164.902C106.351 164.615 105.264 164.942 104.423 165.885C103.773 166.613 103.473 167.429 103.524 168.333C103.575 169.236 104.013 170.056 104.836 170.791C105.66 171.526 106.523 171.869 107.427 171.817C108.331 171.766 109.107 171.377 109.757 170.649C110.61 169.694 110.813 168.578 110.367 167.3L113.482 166.188C113.937 167.217 114.038 168.304 113.786 169.452C113.544 170.587 112.971 171.662 112.065 172.677ZM122.416 159.859C122.374 160.315 122.225 160.793 121.97 161.295C121.714 161.774 121.389 162.234 120.994 162.676C119.971 163.822 118.885 164.45 117.736 164.56C116.597 164.659 115.46 164.202 114.326 163.189L110.37 159.657L109.043 161.143L106.895 159.224L108.222 157.739L105.877 155.645L108.37 152.852L110.715 154.946L112.857 152.547L115.006 154.465L112.864 156.864L116.784 160.365C117.19 160.727 117.597 160.908 118.005 160.907C118.411 160.884 118.785 160.682 119.126 160.3C119.521 159.859 119.737 159.376 119.775 158.853L122.416 159.859ZM118.303 148.575C118.135 147.825 118.183 147.063 118.445 146.289C118.718 145.503 119.185 144.74 119.845 144L122.423 146.302C122.122 146.591 121.924 146.789 121.828 146.896C121.114 147.696 120.781 148.525 120.83 149.383C120.867 150.231 121.332 151.055 122.228 151.854L126.775 155.914L124.281 158.707L114.65 150.107L117.031 147.44L118.303 148.575ZM121.471 142.467L123.965 139.674L133.596 148.274L131.103 151.067L121.471 142.467ZM121.375 139.872C120.917 140.385 120.395 140.67 119.809 140.726C119.223 140.781 118.709 140.612 118.267 140.218C117.826 139.824 117.6 139.332 117.589 138.743C117.578 138.155 117.802 137.604 118.261 137.091C118.719 136.577 119.235 136.288 119.809 136.221C120.383 136.155 120.885 136.313 121.315 136.697C121.78 137.112 122.024 137.62 122.047 138.219C122.058 138.808 121.834 139.359 121.375 139.872ZM140.21 141.156C139.293 142.182 138.259 142.921 137.106 143.371C135.951 143.799 134.79 143.91 133.623 143.704C132.466 143.486 131.41 142.951 130.456 142.099C129.501 141.246 128.85 140.257 128.503 139.132C128.167 137.996 128.152 136.835 128.459 135.65C128.765 134.443 129.376 133.327 130.292 132.3C131.198 131.286 132.201 130.594 133.302 130.226C134.402 129.835 135.5 129.818 136.597 130.176L135.826 133.381C134.496 133.093 133.409 133.421 132.568 134.364C131.918 135.092 131.618 135.908 131.669 136.812C131.72 137.715 132.158 138.535 132.981 139.27C133.805 140.005 134.668 140.347 135.572 140.296C136.476 140.245 137.252 139.856 137.902 139.128C138.755 138.173 138.958 137.056 138.512 135.778L141.627 134.667C142.082 135.695 142.183 136.783 141.931 137.931C141.689 139.066 141.116 140.141 140.21 141.156Z" fill="#00FFDA"/>
</g>
<g filter="url(#filter2_d_35_2)">
<path d="M120.166 115.577L122.281 113.803L123.823 115.641L121.77 117.364L126.99 123.584L124.6 125.59L119.38 119.37L118.109 120.437L116.566 118.598L117.838 117.531L117.529 117.163C116.741 116.224 116.391 115.247 116.479 114.232C116.578 113.209 117.133 112.274 118.145 111.425C118.502 111.125 118.873 110.883 119.259 110.699C119.646 110.497 120.006 110.377 120.341 110.34L121.165 112.598C120.727 112.635 120.323 112.808 119.956 113.117C119.231 113.725 119.202 114.428 119.871 115.225L120.166 115.577ZM134.154 117.782C133.286 118.51 132.354 118.987 131.36 119.213C130.367 119.419 129.406 119.364 128.478 119.046C127.55 118.728 126.743 118.161 126.058 117.343C125.372 116.526 124.953 115.633 124.802 114.664C124.65 113.695 124.766 112.744 125.15 111.813C125.536 110.862 126.163 110.023 127.032 109.294C127.9 108.566 128.83 108.098 129.823 107.892C130.808 107.675 131.764 107.726 132.692 108.043C133.62 108.361 134.427 108.929 135.112 109.746C135.798 110.563 136.217 111.456 136.369 112.425C136.52 113.394 136.408 114.35 136.033 115.292C135.648 116.223 135.022 117.054 134.154 117.782ZM132.508 115.821C133.121 115.307 133.45 114.682 133.495 113.948C133.542 113.195 133.274 112.471 132.692 111.777C132.109 111.082 131.447 110.698 130.706 110.624C129.966 110.531 129.29 110.741 128.677 111.255C128.064 111.77 127.734 112.403 127.688 113.156C127.632 113.899 127.896 114.618 128.478 115.312C129.061 116.007 129.727 116.396 130.477 116.481C131.218 116.555 131.895 116.335 132.508 115.821ZM136.447 103.456C136.399 102.818 136.529 102.195 136.838 101.588C137.157 100.972 137.633 100.399 138.266 99.8674L140.117 102.074C139.835 102.276 139.647 102.416 139.555 102.493C138.871 103.067 138.498 103.711 138.435 104.425C138.364 105.129 138.65 105.863 139.293 106.629L142.558 110.521L140.168 112.526L133.252 104.284L135.535 102.368L136.447 103.456Z" fill="#00FFDA"/>
</g>
<g filter="url(#filter3_d_35_2)">
<path d="M146.072 166.107C144.687 167.113 143.215 167.727 141.656 167.949C140.101 168.149 138.614 167.953 137.196 167.361C135.781 166.747 134.585 165.767 133.608 164.42C132.63 163.074 132.073 161.639 131.937 160.117C131.804 158.572 132.078 157.098 132.759 155.694C133.444 154.268 134.485 153.047 135.884 152.032C137.062 151.176 138.274 150.613 139.52 150.341C140.779 150.06 142.014 150.072 143.225 150.379L142.559 153.71C140.869 153.316 139.344 153.612 137.985 154.599C137.143 155.21 136.528 155.943 136.141 156.798C135.744 157.64 135.597 158.527 135.701 159.46C135.818 160.384 136.182 161.266 136.793 162.108C137.404 162.95 138.13 163.569 138.972 163.966C139.827 164.354 140.721 164.496 141.654 164.392C142.577 164.275 143.46 163.911 144.301 163.3C145.661 162.313 146.41 160.948 146.549 159.206L149.923 159.604C149.849 160.864 149.483 162.049 148.826 163.159C148.168 164.269 147.251 165.252 146.072 166.107ZM149.867 146.803C151.486 145.628 153.011 145.114 154.442 145.261C155.864 145.395 157.139 146.239 158.267 147.793L162.596 153.755L159.76 155.814L158.816 154.513C158.951 155.897 158.242 157.154 156.688 158.282C155.885 158.864 155.087 159.236 154.294 159.397C153.514 159.548 152.795 159.496 152.136 159.243C151.478 158.99 150.928 158.559 150.486 157.95C149.781 156.979 149.589 155.952 149.91 154.869C150.244 153.776 151.174 152.675 152.702 151.566L155.111 149.818C154.631 149.157 154.064 148.798 153.409 148.74C152.744 148.669 152.01 148.925 151.208 149.507C150.651 149.912 150.166 150.402 149.754 150.978C149.346 151.531 149.062 152.094 148.902 152.664L146.278 151.337C146.556 150.522 147.01 149.717 147.64 148.924C148.283 148.121 149.026 147.414 149.867 146.803ZM155.965 155.692C156.483 155.316 156.858 154.866 157.09 154.342C157.313 153.804 157.339 153.242 157.169 152.653L156.394 151.585L154.316 153.094C153.073 153.996 152.747 154.855 153.339 155.671C153.621 156.059 153.996 156.262 154.463 156.279C154.933 156.273 155.434 156.078 155.965 155.692ZM161.647 140.594C161.643 139.826 161.851 139.091 162.272 138.39C162.705 137.68 163.323 137.034 164.126 136.451L166.157 139.248C165.801 139.466 165.565 139.618 165.449 139.702C164.581 140.332 164.08 141.072 163.945 141.921C163.801 142.757 164.081 143.661 164.786 144.632L168.368 149.565L165.338 151.765L157.752 141.316L160.646 139.215L161.647 140.594ZM177.292 143.323C176.425 143.953 175.501 144.465 174.522 144.859C173.534 145.241 172.676 145.448 171.949 145.482L171.38 142.574C172.062 142.533 172.804 142.37 173.605 142.085C174.397 141.787 175.111 141.407 175.745 140.947C177.027 140.016 177.437 139.234 176.977 138.599C176.761 138.301 176.431 138.215 175.987 138.339C175.544 138.463 174.926 138.743 174.135 139.179C173.187 139.67 172.373 140.033 171.694 140.269C171.015 140.505 170.314 140.56 169.589 140.433C168.877 140.298 168.235 139.835 167.662 139.045C167.182 138.385 166.947 137.666 166.956 136.888C166.968 136.088 167.234 135.283 167.752 134.471C168.283 133.651 169.047 132.879 170.044 132.155C170.782 131.619 171.575 131.172 172.422 130.814C173.273 130.433 174.041 130.212 174.727 130.149L175.282 133.038C173.987 133.187 172.796 133.657 171.708 134.446C171.061 134.916 170.641 135.36 170.449 135.776C170.257 136.192 170.264 136.543 170.471 136.828C170.706 137.151 171.045 137.251 171.489 137.127C171.932 137.002 172.578 136.721 173.427 136.283C174.385 135.805 175.197 135.453 175.863 135.226C176.519 134.987 177.203 134.935 177.915 135.071C178.627 135.207 179.26 135.657 179.814 136.421C180.284 137.068 180.508 137.785 180.486 138.572C180.465 139.359 180.182 140.168 179.637 140.998C179.097 141.805 178.315 142.581 177.292 143.323Z" fill="#00FFDA"/>
</g>
<g filter="url(#filter4_d_35_2)">
<path d="M123.923 19.7271C185.822 19.7271 236 69.084 236 129.969C236 190.853 180.975 234.251 119.077 234.251C57.1785 234.251 7 184.894 7 124.01C7 84.6988 27.9184 50.1935 59.4034 30.6762" stroke="#00FFDA" stroke-width="5" stroke-linecap="round"/>
<g clip-path="url(#clip0_35_2)">
<path d="M86.8912 8.5032C86.0955 8.48528 85.3268 8.73943 84.754 9.20973C84.1812 9.68004 83.8513 10.328 83.8369 11.011C83.8225 11.694 84.1247 12.3562 84.6771 12.8518C85.2295 13.3475 85.9868 13.636 86.7825 13.6539L95.7821 13.8566L95.8908 8.7059L86.8912 8.5032ZM98.9723 4.91043L98.3744 33.2393C98.3672 33.5808 98.5183 33.9119 98.7945 34.1597C99.0707 34.4076 99.4494 34.5518 99.8472 34.5608L102.847 34.6283C103.245 34.6373 103.629 34.5102 103.916 34.2751C104.202 34.0399 104.367 33.716 104.374 33.3745L104.401 32.0868L107.401 32.1543C110.859 32.2318 114.232 31.2818 116.95 29.4651C119.668 27.6484 121.564 25.0764 122.318 22.184L131.618 22.3934L131.727 17.2427L122.427 17.0333C121.795 14.1097 120.009 11.4547 117.371 9.51738C114.732 7.58003 111.402 6.47912 107.945 6.4008L104.945 6.33324L104.972 5.04556C104.979 4.70405 104.828 4.37296 104.552 4.12514C104.276 3.87732 103.897 3.73306 103.499 3.7241L100.499 3.65654C100.102 3.64758 99.7172 3.77465 99.4308 4.0098C99.1444 4.24495 98.9795 4.56892 98.9723 4.91043ZM86.5651 23.9553C85.7694 23.9374 85.0007 24.1916 84.4279 24.6619C83.8551 25.1322 83.5252 25.7801 83.5108 26.4631C83.4964 27.1461 83.7986 27.8083 84.351 28.304C84.9034 28.7996 85.6607 29.0881 86.4564 29.106L95.456 29.3087L95.5647 24.158L86.5651 23.9553Z" fill="#00FFDA"/>
</g>
</g>
<defs>
<filter id="filter0_d_35_2" x="84.9656" y="62.7957" width="64.4615" height="60.4789" filterUnits="userSpaceOnUse" color-interpolation-filters="sRGB">
<feFlood flood-opacity="0" result="BackgroundImageFix"/>
<feColorMatrix in="SourceAlpha" type="matrix" values="0 0 0 0 0 0 0 0 0 0 0 0 0 0 0 0 0 0 127 0" result="hardAlpha"/>
<feOffset dy="5"/>
<feGaussianBlur stdDeviation="2"/>
<feComposite in2="hardAlpha" operator="out"/>
<feColorMatrix type="matrix" values="0 0 0 0 0.105882 0 0 0 0 0.584314 0 0 0 0 0.513726 0 0 0 1 0"/>
<feBlend mode="normal" in2="BackgroundImageFix" result="effect1_dropShadow_35_2"/>
<feBlend mode="normal" in="SourceGraphic" in2="effect1_dropShadow_35_2" result="shape"/>
</filter>
<filter id="filter1_d_35_2" x="64.2362" y="124.133" width="83.8259" height="90.69" filterUnits="userSpaceOnUse" color-interpolation-filters="sRGB">
<feFlood flood-opacity="0" result="BackgroundImageFix"/>
<feColorMatrix in="SourceAlpha" type="matrix" values="0 0 0 0 0 0 0 0 0 0 0 0 0 0 0 0 0 0 127 0" result="hardAlpha"/>
<feOffset dy="5"/>
<feGaussianBlur stdDeviation="2"/>
<feComposite in2="hardAlpha" operator="out"/>
<feColorMatrix type="matrix" values="0 0 0 0 0.105882 0 0 0 0 0.584314 0 0 0 0 0.513726 0 0 0 1 0"/>
<feBlend mode="normal" in2="BackgroundImageFix" result="effect1_dropShadow_35_2"/>
<feBlend mode="normal" in="SourceGraphic" in2="effect1_dropShadow_35_2" result="shape"/>
</filter>
<filter id="filter2_d_35_2" x="109.686" y="96.742" width="39.7019" height="39.0375" filterUnits="userSpaceOnUse" color-interpolation-filters="sRGB">
<feFlood flood-opacity="0" result="BackgroundImageFix"/>
<feColorMatrix in="SourceAlpha" type="matrix" values="0 0 0 0 0 0 0 0 0 0 0 0 0 0 0 0 0 0 127 0" result="hardAlpha"/>
<feOffset dy="5"/>
<feGaussianBlur stdDeviation="2"/>
<feComposite in2="hardAlpha" operator="out"/>
<feColorMatrix type="matrix" values="0 0 0 0 0.105882 0 0 0 0 0.584314 0 0 0 0 0.513726 0 0 0 1 0"/>
<feBlend mode="normal" in2="BackgroundImageFix" result="effect1_dropShadow_35_2"/>
<feBlend mode="normal" in="SourceGraphic" in2="effect1_dropShadow_35_2" result="shape"/>
</filter>
<filter id="filter3_d_35_2" x="124.503" y="125.758" width="61.7783" height="54.6926" filterUnits="userSpaceOnUse" color-interpolation-filters="sRGB">
<feFlood flood-opacity="0" result="BackgroundImageFix"/>
<feColorMatrix in="SourceAlpha" type="matrix" values="0 0 0 0 0 0 0 0 0 0 0 0 0 0 0 0 0 0 127 0" result="hardAlpha"/>
<feOffset dy="5"/>
<feGaussianBlur stdDeviation="2"/>
<feComposite in2="hardAlpha" operator="out"/>
<feColorMatrix type="matrix" values="0 0 0 0 0.105882 0 0 0 0 0.584314 0 0 0 0 0.513726 0 0 0 1 0"/>
<feBlend mode="normal" in2="BackgroundImageFix" result="effect1_dropShadow_35_2"/>
<feBlend mode="normal" in="SourceGraphic" in2="effect1_dropShadow_35_2" result="shape"/>
</filter>
<filter id="filter4_d_35_2" x="0.5" y="0" width="242" height="244.751" filterUnits="userSpaceOnUse" color-interpolation-filters="sRGB">
<feFlood flood-opacity="0" result="BackgroundImageFix"/>
<feColorMatrix in="SourceAlpha" type="matrix" values="0 0 0 0 0 0 0 0 0 0 0 0 0 0 0 0 0 0 127 0" result="hardAlpha"/>
<feOffset dy="4"/>
<feGaussianBlur stdDeviation="2"/>
<feComposite in2="hardAlpha" operator="out"/>
<feColorMatrix type="matrix" values="0 0 0 0 0 0 0 0 0 0 0 0 0 0 0 0 0 0 1 0"/>
<feBlend mode="normal" in2="BackgroundImageFix" result="effect1_dropShadow_35_2"/>
<feBlend mode="normal" in="SourceGraphic" in2="effect1_dropShadow_35_2" result="shape"/>
</filter>
<clipPath id="clip0_35_2">
<rect width="37.1032" height="52.848" fill="white" transform="matrix(0.0210987 -0.999777 0.999746 0.0225165 74.1654 37.095)"/>
</clipPath>
</defs>
</svg>
